{
	"patcher" : 	{
		"fileversion" : 1,
		"appversion" : 		{
			"major" : 7,
			"minor" : 3,
			"revision" : 4,
			"architecture" : "x64",
			"modernui" : 1
		}
,
		"rect" : [ 61.0, 139.0, 751.0, 556.0 ],
		"bglocked" : 0,
		"openinpresentation" : 0,
		"default_fontsize" : 12.0,
		"default_fontface" : 0,
		"default_fontname" : "Arial",
		"gridonopen" : 1,
		"gridsize" : [ 15.0, 15.0 ],
		"gridsnaponopen" : 1,
		"objectsnaponopen" : 1,
		"statusbarvisible" : 2,
		"toolbarvisible" : 1,
		"lefttoolbarpinned" : 0,
		"toptoolbarpinned" : 0,
		"righttoolbarpinned" : 0,
		"bottomtoolbarpinned" : 0,
		"toolbars_unpinned_last_save" : 0,
		"tallnewobj" : 0,
		"boxanimatetime" : 200,
		"enablehscroll" : 1,
		"enablevscroll" : 1,
		"devicewidth" : 0.0,
		"description" : "",
		"digest" : "",
		"tags" : "",
		"style" : "",
		"subpatcher_template" : "",
		"boxes" : [ 			{
				"box" : 				{
					"id" : "obj-43",
					"maxclass" : "comment",
					"numinlets" : 1,
					"numoutlets" : 0,
					"patching_rect" : [ 196.000122, 318.666656, 19.0, 20.0 ],
					"presentation" : 1,
					"presentation_rect" : [ 208.333344, 165.0, 19.0, 20.0 ],
					"style" : "",
					"text" : "R"
				}

			}
, 			{
				"box" : 				{
					"id" : "obj-41",
					"maxclass" : "comment",
					"numinlets" : 1,
					"numoutlets" : 0,
					"patching_rect" : [ 151.833344, 318.666656, 19.0, 20.0 ],
					"presentation" : 1,
					"presentation_rect" : [ 133.5, 165.0, 19.0, 20.0 ],
					"style" : "",
					"text" : "B"
				}

			}
, 			{
				"box" : 				{
					"id" : "obj-37",
					"linecount" : 2,
					"maxclass" : "comment",
					"numinlets" : 1,
					"numoutlets" : 0,
					"patching_rect" : [ 298.0, 192.0, 150.0, 34.0 ],
					"presentation" : 1,
					"presentation_linecount" : 2,
					"presentation_rect" : [ 258.000122, 134.0, 152.0, 34.0 ],
					"style" : "",
					"text" : "Normalized, Windowed, \nOverlapped FFT:"
				}

			}
, 			{
				"box" : 				{
					"id" : "obj-36",
					"maxclass" : "comment",
					"numinlets" : 1,
					"numoutlets" : 0,
					"patching_rect" : [ 133.0, 199.0, 99.0, 20.0 ],
					"presentation" : 1,
					"presentation_rect" : [ 131.0, 141.0, 99.0, 20.0 ],
					"style" : "",
					"text" : "Normalized FFT:"
				}

			}
, 			{
				"box" : 				{
					"id" : "obj-35",
					"maxclass" : "comment",
					"numinlets" : 1,
					"numoutlets" : 0,
					"patching_rect" : [ 13.500122, 199.0, 67.0, 20.0 ],
					"presentation" : 1,
					"presentation_rect" : [ 22.0, 141.0, 67.0, 20.0 ],
					"style" : "",
					"text" : "Basic FFT:"
				}

			}
, 			{
				"box" : 				{
					"id" : "obj-30",
					"maxclass" : "newobj",
					"numinlets" : 2,
					"numoutlets" : 1,
					"outlettype" : [ "signal" ],
					"patching_rect" : [ 268.500122, 137.0, 29.5, 22.0 ],
					"style" : "",
					"text" : "*~"
				}

			}
, 			{
				"box" : 				{
					"format" : 6,
					"id" : "obj-31",
					"maxclass" : "flonum",
					"numinlets" : 1,
					"numoutlets" : 2,
					"outlettype" : [ "", "bang" ],
					"parameter_enable" : 0,
					"patching_rect" : [ 308.500122, 80.0, 50.0, 22.0 ],
					"presentation" : 1,
					"presentation_rect" : [ 316.333313, 81.0, 50.0, 22.0 ],
					"style" : ""
				}

			}
, 			{
				"box" : 				{
					"id" : "obj-32",
					"maxclass" : "toggle",
					"numinlets" : 1,
					"numoutlets" : 1,
					"outlettype" : [ "int" ],
					"parameter_enable" : 0,
					"patching_rect" : [ 279.000122, 80.0, 24.0, 24.0 ],
					"presentation" : 1,
					"presentation_rect" : [ 280.000122, 81.0, 24.0, 24.0 ],
					"style" : ""
				}

			}
, 			{
				"box" : 				{
					"id" : "obj-33",
					"maxclass" : "newobj",
					"numinlets" : 2,
					"numoutlets" : 1,
					"outlettype" : [ "signal" ],
					"patching_rect" : [ 308.500122, 109.0, 69.0, 22.0 ],
					"style" : "",
					"text" : "saw~ 1000"
				}

			}
, 			{
				"box" : 				{
					"id" : "obj-27",
					"maxclass" : "newobj",
					"numinlets" : 2,
					"numoutlets" : 1,
					"outlettype" : [ "signal" ],
					"patching_rect" : [ 75.500122, 136.0, 29.5, 22.0 ],
					"style" : "",
					"text" : "*~"
				}

			}
, 			{
				"box" : 				{
					"format" : 6,
					"id" : "obj-26",
					"maxclass" : "flonum",
					"numinlets" : 1,
					"numoutlets" : 2,
					"outlettype" : [ "", "bang" ],
					"parameter_enable" : 0,
					"patching_rect" : [ 115.500122, 80.0, 50.0, 22.0 ],
					"presentation" : 1,
					"presentation_rect" : [ 123.333344, 81.0, 50.0, 22.0 ],
					"style" : ""
				}

			}
, 			{
				"box" : 				{
					"id" : "obj-23",
					"maxclass" : "toggle",
					"numinlets" : 1,
					"numoutlets" : 1,
					"outlettype" : [ "int" ],
					"parameter_enable" : 0,
					"patching_rect" : [ 86.000122, 80.0, 24.0, 24.0 ],
					"presentation" : 1,
					"presentation_rect" : [ 91.000122, 81.0, 24.0, 24.0 ],
					"style" : ""
				}

			}
, 			{
				"box" : 				{
					"id" : "obj-22",
					"maxclass" : "comment",
					"numinlets" : 1,
					"numoutlets" : 0,
					"patching_rect" : [ 181.333313, 80.0, 86.0, 20.0 ],
					"presentation" : 1,
					"presentation_rect" : [ 181.333344, 81.0, 86.0, 20.0 ],
					"style" : "",
					"text" : "Square Wave:"
				}

			}
, 			{
				"box" : 				{
					"id" : "obj-21",
					"maxclass" : "comment",
					"numinlets" : 1,
					"numoutlets" : 0,
					"patching_rect" : [ 14.333313, 80.0, 65.0, 20.0 ],
					"presentation" : 1,
					"presentation_rect" : [ 20.0, 81.0, 65.0, 20.0 ],
					"style" : "",
					"text" : "Sin Wave:"
				}

			}
, 			{
				"box" : 				{
					"bgcolor" : [ 0.92549, 0.364706, 0.341176, 0.76 ],
					"fontsize" : 30.0,
					"id" : "obj-14",
					"maxclass" : "comment",
					"numinlets" : 1,
					"numoutlets" : 0,
					"patching_rect" : [ 14.333313, 12.0, 360.0, 41.0 ],
					"presentation" : 1,
					"presentation_rect" : [ 11.0, 13.0, 729.0, 41.0 ],
					"style" : "",
					"text" : "Fast Fourier Transform",
					"textjustification" : 1
				}

			}
, 			{
				"box" : 				{
					"id" : "obj-11",
					"maxclass" : "toggle",
					"numinlets" : 1,
					"numoutlets" : 1,
					"outlettype" : [ "int" ],
					"parameter_enable" : 0,
					"patching_rect" : [ 151.833344, 348.000031, 24.0, 24.0 ],
					"presentation" : 1,
					"presentation_rect" : [ 131.0, 185.0, 24.0, 24.0 ],
					"style" : ""
				}

			}
, 			{
				"box" : 				{
					"id" : "obj-12",
					"maxclass" : "newobj",
					"numinlets" : 2,
					"numoutlets" : 1,
					"outlettype" : [ "signal" ],
					"patching_rect" : [ 141.333344, 390.000031, 29.5, 22.0 ],
					"style" : "",
					"text" : "*~"
				}

			}
, 			{
				"box" : 				{
					"id" : "obj-9",
					"maxclass" : "toggle",
					"numinlets" : 1,
					"numoutlets" : 1,
					"outlettype" : [ "int" ],
					"parameter_enable" : 0,
					"patching_rect" : [ 33.000122, 304.000031, 24.0, 24.0 ],
					"presentation" : 1,
					"presentation_rect" : [ 43.5, 185.0, 24.0, 24.0 ],
					"style" : ""
				}

			}
, 			{
				"box" : 				{
					"id" : "obj-10",
					"maxclass" : "newobj",
					"numinlets" : 2,
					"numoutlets" : 1,
					"outlettype" : [ "signal" ],
					"patching_rect" : [ 11.500122, 341.0, 29.5, 22.0 ],
					"style" : "",
					"text" : "*~"
				}

			}
, 			{
				"box" : 				{
					"id" : "obj-8",
					"maxclass" : "toggle",
					"numinlets" : 1,
					"numoutlets" : 1,
					"outlettype" : [ "int" ],
					"parameter_enable" : 0,
					"patching_rect" : [ 291.500122, 304.000031, 24.0, 24.0 ],
					"presentation" : 1,
					"presentation_rect" : [ 316.333313, 185.0, 24.0, 24.0 ],
					"style" : ""
				}

			}
, 			{
				"box" : 				{
					"id" : "obj-6",
					"maxclass" : "newobj",
					"numinlets" : 2,
					"numoutlets" : 1,
					"outlettype" : [ "signal" ],
					"patching_rect" : [ 272.0, 341.0, 29.5, 22.0 ],
					"style" : "",
					"text" : "*~"
				}

			}
, 			{
				"box" : 				{
					"id" : "obj-4",
					"maxclass" : "toggle",
					"numinlets" : 1,
					"numoutlets" : 1,
					"outlettype" : [ "int" ],
					"parameter_enable" : 0,
					"patching_rect" : [ 217.833344, 348.000031, 24.0, 24.0 ],
					"presentation" : 1,
					"presentation_rect" : [ 206.0, 185.0, 24.0, 24.0 ],
					"style" : ""
				}

			}
, 			{
				"box" : 				{
					"id" : "obj-1",
					"maxclass" : "newobj",
					"numinlets" : 2,
					"numoutlets" : 1,
					"outlettype" : [ "signal" ],
					"patching_rect" : [ 207.333344, 390.000031, 29.5, 22.0 ],
					"style" : "",
					"text" : "*~"
				}

			}
, 			{
				"box" : 				{
					"id" : "obj-54",
					"maxclass" : "newobj",
					"numinlets" : 1,
					"numoutlets" : 1,
					"outlettype" : [ "signal" ],
					"patching_rect" : [ 272.0, 275.000031, 176.0, 22.0 ],
					"presentation" : 1,
					"presentation_rect" : [ 218.000122, 231.000031, 176.0, 22.0 ],
					"style" : "",
					"text" : "BREN-fft-norm-overlap-window"
				}

			}
, 			{
				"box" : 				{
					"id" : "obj-87",
					"margins" : [ 1.0, 0.0, 1.0, 0.0 ],
					"maxclass" : "plot~",
					"numinlets" : 1,
					"numoutlets" : 1,
					"numpoints" : 512,
					"outlettype" : [ "" ],
					"patching_rect" : [ 495.833313, 221.0, 666.0, 97.0 ],
					"presentation" : 1,
					"presentation_rect" : [ 435.0, 64.0, 305.0, 157.0 ],
					"subplots" : [ 						{
							"color" : [ 0.4, 0.4, 0.75, 1.0 ],
							"thickness" : 1.2,
							"point_style" : "none",
							"line_style" : "lines",
							"number_style" : "none",
							"filter" : "none",
							"domain_start" : 0.0,
							"domain_end" : 1.0,
							"domain_style" : "linear",
							"domain_markers" : [ 0.0, 0.125, 0.25, 0.375, 0.5, 0.625, 0.75, 0.875, 1.0 ],
							"domain_labels" : [  ],
							"range_start" : -1.0,
							"range_end" : 1.0,
							"range_style" : "linear",
							"range_markers" : [ -0.5, 0.0, 0.5 ],
							"range_labels" : [  ],
							"origin_x" : 0.0,
							"origin_y" : 0.0
						}
 ]
				}

			}
, 			{
				"box" : 				{
					"id" : "obj-50",
					"maxclass" : "newobj",
					"numinlets" : 1,
					"numoutlets" : 1,
					"outlettype" : [ "signal" ],
					"patching_rect" : [ 11.500122, 275.000031, 90.0, 22.0 ],
					"presentation" : 1,
					"presentation_rect" : [ 11.0, 231.000031, 90.0, 22.0 ],
					"style" : "",
					"text" : "BREN-fft-basic"
				}

			}
, 			{
				"box" : 				{
					"id" : "obj-49",
					"maxclass" : "newobj",
					"numinlets" : 1,
					"numoutlets" : 1,
					"outlettype" : [ "signal" ],
					"patching_rect" : [ 133.0, 275.000031, 89.0, 22.0 ],
					"presentation" : 1,
					"presentation_rect" : [ 114.0, 231.000031, 89.0, 22.0 ],
					"style" : "",
					"text" : "BREN-fft-norm"
				}

			}
, 			{
				"box" : 				{
					"id" : "obj-29",
					"maxclass" : "newobj",
					"numinlets" : 2,
					"numoutlets" : 1,
					"outlettype" : [ "signal" ],
					"patching_rect" : [ 115.500122, 109.0, 75.0, 22.0 ],
					"style" : "",
					"text" : "cycle~ 1000"
				}

			}
, 			{
				"box" : 				{
					"audioframesize" : 512,
					"domainlabel" : "Frequency (Hz)",
					"id" : "obj-99",
					"margins" : [ 8.0, 8.0, 20.0, 50.0 ],
					"maxclass" : "plot~",
					"numinlets" : 2,
					"numoutlets" : 1,
					"numplots" : 2,
					"numpoints" : 128,
					"outlettype" : [ "" ],
					"patching_rect" : [ 26.500122, 497.666687, 460.0, 211.0 ],
					"presentation" : 1,
					"presentation_rect" : [ 11.0, 261.666687, 729.0, 271.0 ],
					"rangelabel" : "Magnitude (dB)",
					"subplots" : [ 						{
							"color" : [ 0.4, 0.4, 0.75, 1.0 ],
							"thickness" : 1.0,
							"point_style" : "none",
							"line_style" : "lines",
							"number_style" : "none",
							"filter" : "atodb",
							"domain_start" : 0.0,
							"domain_end" : 22050.0,
							"domain_style" : "log",
							"domain_markers" : [ 0.0, 10.0, 20.0, 30.0, 40.0, 50.0, 60.0, 70.0, 80.0, 90.0, 100.0, 200.0, 300.0, 400.0, 500.0, 600.0, 700.0, 800.0, 900.0, 1000.0, 2000.0, 3000.0, 4000.0, 5000.0, 6000.0, 7000.0, 8000.0, 9000.0, 10000.0, 20000.0, 22050.0 ],
							"domain_labels" : [ 10.0, "10", 100.0, "100", 1000.0, "1K", 10000.0, "10K", 20000.0, "20K" ],
							"range_start" : -132.0,
							"range_end" : 0.0,
							"range_style" : "linear",
							"range_markers" : [ -132.0, -120.0, -108.0, -96.0, -84.0, -72.0, -60.0, -48.0, -36.0, -24.0, -12.0, 0.0 ],
							"range_labels" : [ 0.0, "0", -12.0, "-12", -24.0, "-24", -36.0, "-36", -48.0, "-48", -60.0, "-60", -72.0, "-72", -84.0, "-84", -96.0, "-96", -108.0, "-108", -120.0, "-120", -132.0, "-132" ],
							"origin_x" : 0.0,
							"origin_y" : 0.0
						}
, 						{
							"color" : [ 0.7, 0.28, 0.39, 1.0 ],
							"thickness" : 1.0,
							"point_style" : "none",
							"line_style" : "lines",
							"number_style" : "none",
							"filter" : "atodb",
							"domain_start" : 0.0,
							"domain_end" : 22050.0,
							"domain_style" : "log",
							"domain_markers" : [  ],
							"domain_labels" : [  ],
							"range_start" : -132.0,
							"range_end" : 0.0,
							"range_style" : "linear",
							"range_markers" : [  ],
							"range_labels" : [  ],
							"origin_x" : 0.0,
							"origin_y" : 0.0
						}
 ]
				}

			}
, 			{
				"box" : 				{
					"id" : "obj-18",
					"maxclass" : "ezdac~",
					"numinlets" : 2,
					"numoutlets" : 0,
					"patching_rect" : [ 388.833313, 12.0, 45.0, 45.0 ],
					"presentation" : 1,
					"presentation_rect" : [ 383.0, 70.0, 45.0, 45.0 ],
					"style" : ""
				}

			}
, 			{
				"box" : 				{
					"attr" : "numpoints",
					"id" : "obj-100",
					"maxclass" : "attrui",
					"numinlets" : 1,
					"numoutlets" : 1,
					"outlettype" : [ "" ],
					"patching_rect" : [ 59.000122, 463.333374, 150.0, 22.0 ],
					"style" : ""
				}

			}
, 			{
				"box" : 				{
					"attr" : "numpoints",
					"id" : "obj-16",
					"maxclass" : "attrui",
					"numinlets" : 1,
					"numoutlets" : 1,
					"outlettype" : [ "" ],
					"patching_rect" : [ 531.833313, 184.0, 150.0, 22.0 ],
					"style" : ""
				}

			}
, 			{
				"box" : 				{
					"angle" : 270.0,
					"bgcolor" : [ 0.65098, 0.666667, 0.662745, 1.0 ],
					"id" : "obj-38",
					"maxclass" : "panel",
					"mode" : 0,
					"numinlets" : 1,
					"numoutlets" : 0,
					"patching_rect" : [ 3.0, 174.000031, 477.833313, 249.0 ],
					"presentation" : 1,
					"presentation_rect" : [ 11.0, 129.0, 417.0, 92.0 ],
					"proportion" : 0.39,
					"style" : ""
				}

			}
, 			{
				"box" : 				{
					"angle" : 270.0,
					"bgcolor" : [ 0.65098, 0.666667, 0.662745, 1.0 ],
					"id" : "obj-39",
					"maxclass" : "panel",
					"mode" : 0,
					"numinlets" : 1,
					"numoutlets" : 0,
					"patching_rect" : [ 13.500122, 63.0, 388.0, 75.666656 ],
					"presentation" : 1,
					"presentation_rect" : [ 11.0, 64.0, 363.0, 57.0 ],
					"proportion" : 0.39,
					"style" : ""
				}

			}
 ],
		"lines" : [ 			{
				"patchline" : 				{
					"destination" : [ "obj-99", 1 ],
					"source" : [ "obj-1", 0 ]
				}

			}
, 			{
				"patchline" : 				{
					"destination" : [ "obj-99", 0 ],
					"source" : [ "obj-10", 0 ]
				}

			}
, 			{
				"patchline" : 				{
					"destination" : [ "obj-99", 0 ],
					"source" : [ "obj-100", 0 ]
				}

			}
, 			{
				"patchline" : 				{
					"destination" : [ "obj-12", 1 ],
					"source" : [ "obj-11", 0 ]
				}

			}
, 			{
				"patchline" : 				{
					"destination" : [ "obj-99", 0 ],
					"source" : [ "obj-12", 0 ]
				}

			}
, 			{
				"patchline" : 				{
					"destination" : [ "obj-87", 0 ],
					"source" : [ "obj-16", 0 ]
				}

			}
, 			{
				"patchline" : 				{
					"destination" : [ "obj-27", 1 ],
					"source" : [ "obj-23", 0 ]
				}

			}
, 			{
				"patchline" : 				{
					"destination" : [ "obj-29", 0 ],
					"source" : [ "obj-26", 0 ]
				}

			}
, 			{
				"patchline" : 				{
					"destination" : [ "obj-49", 0 ],
					"midpoints" : [ 85.000122, 259.0, 120.0, 259.0, 120.0, 258.0, 142.5, 258.0 ],
					"order" : 2,
					"source" : [ "obj-27", 0 ]
				}

			}
, 			{
				"patchline" : 				{
					"destination" : [ "obj-50", 0 ],
					"midpoints" : [ 85.000122, 192.0, 90.0, 192.0, 90.0, 261.0, 21.000122, 261.0 ],
					"order" : 3,
					"source" : [ "obj-27", 0 ]
				}

			}
, 			{
				"patchline" : 				{
					"destination" : [ "obj-54", 0 ],
					"midpoints" : [ 85.000122, 257.0, 281.5, 257.0 ],
					"order" : 1,
					"source" : [ "obj-27", 0 ]
				}

			}
, 			{
				"patchline" : 				{
					"destination" : [ "obj-87", 0 ],
					"midpoints" : [ 85.000122, 167.0, 495.0, 167.0, 495.0, 192.0, 505.333313, 192.0 ],
					"order" : 0,
					"source" : [ "obj-27", 0 ]
				}

			}
, 			{
				"patchline" : 				{
					"destination" : [ "obj-27", 0 ],
					"source" : [ "obj-29", 0 ]
				}

			}
, 			{
				"patchline" : 				{
					"destination" : [ "obj-49", 0 ],
					"midpoints" : [ 278.000122, 235.0, 142.5, 235.0 ],
					"order" : 2,
					"source" : [ "obj-30", 0 ]
				}

			}
, 			{
				"patchline" : 				{
					"destination" : [ "obj-50", 0 ],
					"midpoints" : [ 278.000122, 235.0, 21.000122, 235.0 ],
					"order" : 3,
					"source" : [ "obj-30", 0 ]
				}

			}
, 			{
				"patchline" : 				{
					"destination" : [ "obj-54", 0 ],
					"order" : 1,
					"source" : [ "obj-30", 0 ]
				}

			}
, 			{
				"patchline" : 				{
					"destination" : [ "obj-87", 0 ],
					"midpoints" : [ 278.000122, 180.0, 505.333313, 180.0 ],
					"order" : 0,
					"source" : [ "obj-30", 0 ]
				}

			}
, 			{
				"patchline" : 				{
					"destination" : [ "obj-33", 0 ],
					"source" : [ "obj-31", 0 ]
				}

			}
, 			{
				"patchline" : 				{
					"destination" : [ "obj-30", 1 ],
					"source" : [ "obj-32", 0 ]
				}

			}
, 			{
				"patchline" : 				{
					"destination" : [ "obj-30", 0 ],
					"source" : [ "obj-33", 0 ]
				}

			}
, 			{
				"patchline" : 				{
					"destination" : [ "obj-1", 1 ],
					"source" : [ "obj-4", 0 ]
				}

			}
, 			{
				"patchline" : 				{
					"destination" : [ "obj-1", 0 ],
					"order" : 0,
					"source" : [ "obj-49", 0 ]
				}

			}
, 			{
				"patchline" : 				{
					"destination" : [ "obj-12", 0 ],
					"order" : 1,
					"source" : [ "obj-49", 0 ]
				}

			}
, 			{
				"patchline" : 				{
					"destination" : [ "obj-10", 0 ],
					"source" : [ "obj-50", 0 ]
				}

			}
, 			{
				"patchline" : 				{
					"destination" : [ "obj-6", 0 ],
					"source" : [ "obj-54", 0 ]
				}

			}
, 			{
				"patchline" : 				{
					"destination" : [ "obj-99", 1 ],
					"source" : [ "obj-6", 0 ]
				}

			}
, 			{
				"patchline" : 				{
					"destination" : [ "obj-6", 1 ],
					"source" : [ "obj-8", 0 ]
				}

			}
, 			{
				"patchline" : 				{
					"destination" : [ "obj-10", 1 ],
					"source" : [ "obj-9", 0 ]
				}

			}
 ],
		"dependency_cache" : [ 			{
				"name" : "BREN-fft-norm.maxpat",
				"bootpath" : "D:/Bren/Documents/2017-2018 Senior/Interactive Music & Multimedia/Music Cognition Final Project/Formant Filter Final",
				"patcherrelativepath" : ".",
				"type" : "JSON",
				"implicit" : 1
			}
, 			{
				"name" : "BREN-fft-basic.maxpat",
				"bootpath" : "D:/Bren/Documents/2017-2018 Senior/Interactive Music & Multimedia/Music Cognition Final Project/Formant Filter Final",
				"patcherrelativepath" : ".",
				"type" : "JSON",
				"implicit" : 1
			}
, 			{
				"name" : "BREN-fft-norm-overlap-window.maxpat",
				"bootpath" : "D:/Bren/Documents/2017-2018 Senior/Interactive Music & Multimedia/Music Cognition Final Project/Formant Filter Final",
				"patcherrelativepath" : ".",
				"type" : "JSON",
				"implicit" : 1
			}
, 			{
				"name" : "BREN-fft-window.maxpat",
				"bootpath" : "D:/Bren/Documents/2017-2018 Senior/Interactive Music & Multimedia/Music Cognition Final Project/Formant Filter Final",
				"patcherrelativepath" : ".",
				"type" : "JSON",
				"implicit" : 1
			}
 ],
		"autosave" : 0
	}

}
